<svg version="1.1" id="Layer_1" xmlns="http://www.w3.org/2000/svg" xmlns:xlink="http://www.w3.org/1999/xlink" x="0px" y="0px"
	 width="100%" viewBox="0 0 303 330" enable-background="new 0 0 303 330" xml:space="preserve">
<path fill="#000000" opacity="1.000000" stroke="none" 
	d="
M202.000000,331.000000 
	C134.666702,331.000000 67.833397,331.000000 1.000072,331.000000 
	C1.000048,221.000092 1.000048,111.000168 1.000024,1.000190 
	C101.999870,1.000126 202.999741,1.000126 303.999695,1.000063 
	C303.999817,110.999817 303.999817,220.999634 303.999908,330.999725 
	C270.166656,331.000000 236.333328,331.000000 202.000000,331.000000 
M168.011841,68.934380 
	C168.005264,62.297325 168.218277,55.648209 167.854935,49.030743 
	C167.749405,47.108490 166.464859,44.618481 164.917557,43.513901 
	C156.859131,37.761196 148.557922,32.346691 140.292053,26.888941 
	C139.316757,26.244982 138.040207,26.057289 135.976028,25.332502 
	C135.976028,41.083595 135.976028,55.966099 135.194839,71.015343 
	C134.428299,71.314224 133.686325,71.744781 132.891693,71.892975 
	C102.872612,77.491096 78.987091,93.135498 61.349236,117.629555 
	C44.860817,140.527359 38.881985,166.455582 42.922951,194.598083 
	C47.525883,226.654327 64.187500,251.091705 90.476219,269.053650 
	C113.342155,284.676941 138.745148,290.921265 166.546295,288.174561 
	C180.892105,286.757141 194.444778,283.182434 207.193848,276.845032 
	C227.501740,266.750244 243.622665,251.809525 254.822266,232.064087 
	C259.743774,223.387192 264.818115,214.486450 265.758270,203.672424 
	C263.904266,201.444366 262.500671,198.284592 260.124786,197.136154 
	C241.696411,188.228287 226.363831,176.191772 216.217682,157.901993 
	C208.534775,144.052551 203.413971,129.527161 203.146820,113.724464 
	C202.969879,103.258423 204.224808,92.768181 204.799652,81.556816 
	C203.492844,80.670860 202.302902,79.377892 200.860626,78.963737 
	C189.943375,75.828781 178.976639,72.866158 168.011841,68.934380 
z"/>
<path fill="#3C8F4A" opacity="1.000000" stroke="none" 
	d="
M265.109253,203.985535 
	C264.818115,214.486450 259.743774,223.387192 254.822266,232.064087 
	C243.622665,251.809525 227.501740,266.750244 207.193848,276.845032 
	C194.444778,283.182434 180.892105,286.757141 166.546295,288.174561 
	C138.745148,290.921265 113.342155,284.676941 90.476219,269.053650 
	C64.187500,251.091705 47.525883,226.654327 42.922951,194.598083 
	C38.881985,166.455582 44.860817,140.527359 61.349236,117.629555 
	C78.987091,93.135498 102.872612,77.491096 132.891693,71.892975 
	C133.686325,71.744781 134.428299,71.314224 135.933197,71.044815 
	C144.397324,71.051880 152.125214,71.126137 159.847687,70.955032 
	C162.580399,70.894478 165.299850,70.235527 168.025345,69.849770 
	C178.976639,72.866158 189.943375,75.828781 200.860626,78.963737 
	C202.302902,79.377892 203.492844,80.670860 204.509613,81.934914 
	C203.146057,82.895172 202.072540,83.477325 200.640518,84.083557 
	C197.492050,85.569382 194.606201,86.874771 191.927124,88.517387 
	C168.358231,102.968094 154.720139,130.983261 162.079773,158.764053 
	C165.607712,172.081177 172.546509,183.440750 183.548615,192.013885 
	C206.047363,209.545486 230.843002,214.071808 258.354858,204.957672 
	C260.847260,204.626801 262.978241,204.306168 265.109253,203.985535 
z"/>
<path fill="#DCE0BE" opacity="1.000000" stroke="none" 
	d="
M265.433777,203.828979 
	C262.978241,204.306168 260.847260,204.626801 257.997406,204.801300 
	C247.521088,202.041336 237.268661,200.562668 228.112213,196.570358 
	C210.641968,188.953171 197.108749,176.044540 192.059601,157.463242 
	C186.631271,137.486633 186.645874,116.968346 195.242081,97.323738 
	C197.174301,92.908112 199.080719,88.481194 200.999023,84.059479 
	C202.072540,83.477325 203.146057,82.895172 204.529144,82.300888 
	C204.224808,92.768181 202.969879,103.258423 203.146820,113.724464 
	C203.413971,129.527161 208.534775,144.052551 216.217682,157.901993 
	C226.363831,176.191772 241.696411,188.228287 260.124786,197.136154 
	C262.500671,198.284592 263.904266,201.444366 265.433777,203.828979 
z"/>
<path fill="#56482B" opacity="1.000000" stroke="none" 
	d="
M168.018585,69.392075 
	C165.299850,70.235527 162.580399,70.894478 159.847687,70.955032 
	C152.125214,71.126137 144.397324,71.051880 136.323792,70.961449 
	C135.976028,55.966099 135.976028,41.083595 135.976028,25.332502 
	C138.040207,26.057289 139.316757,26.244982 140.292053,26.888941 
	C148.557922,32.346691 156.859131,37.761196 164.917557,43.513901 
	C166.464859,44.618481 167.749405,47.108490 167.854935,49.030743 
	C168.218277,55.648209 168.005264,62.297325 168.018585,69.392075 
z"/>
<path fill="#EDF2CB" opacity="1.000000" stroke="none" 
	d="
M200.640518,84.083557 
	C199.080719,88.481194 197.174301,92.908112 195.242081,97.323738 
	C186.645874,116.968346 186.631271,137.486633 192.059601,157.463242 
	C197.108749,176.044540 210.641968,188.953171 228.112213,196.570358 
	C237.268661,200.562668 247.521088,202.041336 257.635986,204.811554 
	C230.843002,214.071808 206.047363,209.545486 183.548615,192.013885 
	C172.546509,183.440750 165.607712,172.081177 162.079773,158.764053 
	C154.720139,130.983261 168.358231,102.968094 191.927124,88.517387 
	C194.606201,86.874771 197.492050,85.569382 200.640518,84.083557 
z"/>
</svg>